<svg viewBox="0 0 200 200" width="100%" height="100%" xmlns="http://www.w3.org/2000/svg">
  <polygon fill="currentColor" style="stroke:var(--ink)" stroke-width="4" stroke-linejoin="round" points="100,12 104.9,75.5 133.7,18.7 113.9,79.2 162.2,37.8 120.8,86.1 181.3,66.3 124.5,95.1 188,100 124.5,104.9 181.3,133.7 120.8,113.9 162.2,162.2 113.9,120.8 133.7,181.3 104.9,124.5 100,188 95.1,124.5 66.3,181.3 86.1,120.8 37.8,162.2 79.2,113.9 18.7,133.7 75.5,104.9 12,100 75.5,95.1 18.7,66.3 79.2,86.1 37.8,37.8 86.1,79.2 66.3,18.7 95.1,75.5"/>
</svg>
